<svg width="30" height="31" viewBox="0 0 30 31" fill="none" xmlns="http://www.w3.org/2000/svg">
<g clip-path="url(#clip0_100_60)">
<path fill-rule="evenodd" clip-rule="evenodd" d="M29.9353 15.6441C29.9353 7.39631 23.2478 0.70874 15 0.70874C6.7522 0.70874 0.0646362 7.39631 0.0646362 15.6441C0.0646362 23.0984 5.52537 29.2773 12.6663 30.3987V19.9627H8.87316V15.6441H12.6663V12.3536C12.6663 8.61114 14.8966 6.54219 18.3078 6.54219C19.942 6.54219 21.6515 6.83423 21.6515 6.83423V10.5101H19.7673C17.913 10.5101 17.333 11.6609 17.333 12.8437V15.6441H21.4749L20.8134 19.9627H17.3336V30.4001C24.4746 29.2793 29.9353 23.1004 29.9353 15.6441Z" fill="#294452"/>
</g>
<defs>
<clipPath id="clip0_100_60">
<rect width="30" height="30" fill="white" transform="translate(0 0.554077)"/>
</clipPath>
</defs>
</svg>
