<svg width="30" height="31" viewBox="0 0 30 31" fill="none" xmlns="http://www.w3.org/2000/svg">
<g clip-path="url(#clip0_100_62)">
<path d="M17.415 15.9186C17.4059 16.3938 17.256 16.8556 16.9842 17.2454C16.7124 17.6353 16.331 17.9357 15.8882 18.1085C15.4455 18.2813 14.9615 18.3188 14.4974 18.2163C14.0333 18.1137 13.6102 17.8756 13.2816 17.5323C12.953 17.1889 12.7337 16.7557 12.6516 16.2876C12.5695 15.8195 12.6282 15.3376 12.8202 14.9029C13.0123 14.4681 13.3292 14.1003 13.7306 13.8458C14.132 13.5914 14.5999 13.4618 15.075 13.4736C15.7064 13.497 16.3038 13.7654 16.7406 14.2218C17.1774 14.6782 17.4193 15.2868 17.415 15.9186Z" fill="#294452"/>
<path d="M19.1444 8.40369H11.007C10.2018 8.40369 9.42964 8.72355 8.86028 9.2929C8.29093 9.86225 7.97107 10.6345 7.97107 11.4396V19.76C7.97107 20.1587 8.0496 20.5535 8.20217 20.9219C8.35474 21.2902 8.57837 21.6249 8.86028 21.9068C9.1422 22.1887 9.47688 22.4123 9.84522 22.5649C10.2136 22.7175 10.6083 22.796 11.007 22.796H19.1444C19.5431 22.796 19.9379 22.7175 20.3062 22.5649C20.6746 22.4123 21.0093 22.1887 21.2912 21.9068C21.5731 21.6249 21.7967 21.2902 21.9493 20.9219C22.1019 20.5535 22.1804 20.1587 22.1804 19.76V11.4546C22.182 11.0548 22.1046 10.6586 21.9528 10.2887C21.801 9.9188 21.5776 9.58251 21.2956 9.29908C21.0136 9.01565 20.6784 8.79067 20.3092 8.63702C19.9401 8.48337 19.5443 8.40408 19.1444 8.40369ZM15.075 19.988C14.2694 20.0062 13.4767 19.784 12.7981 19.3497C12.1194 18.9154 11.5855 18.2887 11.2646 17.5496C10.9436 16.8105 10.8502 15.9926 10.9961 15.2002C11.1421 14.4078 11.5208 13.6768 12.084 13.1006C12.6472 12.5244 13.3694 12.1291 14.1582 11.965C14.9471 11.801 15.767 11.8758 16.5132 12.1798C17.2594 12.4838 17.8981 13.0033 18.3478 13.6718C18.7974 14.3404 19.0377 15.1278 19.0379 15.9336C19.0441 16.4601 18.9464 16.9826 18.7506 17.4713C18.5547 17.96 18.2645 18.4053 17.8965 18.7819C17.5284 19.1584 17.0898 19.4587 16.6057 19.6657C16.1216 19.8726 15.6014 19.9822 15.075 19.988ZM19.4789 11.8806C19.3799 11.8807 19.282 11.8609 19.1907 11.8226C19.0994 11.7843 19.0168 11.7281 18.9475 11.6575C18.8782 11.5868 18.8237 11.503 18.7872 11.411C18.7507 11.319 18.7329 11.2206 18.7349 11.1217C18.7349 10.9204 18.8149 10.7273 18.9572 10.585C19.0996 10.4426 19.2926 10.3627 19.4939 10.3627C19.6952 10.3627 19.8883 10.4426 20.0306 10.585C20.173 10.7273 20.2529 10.9204 20.2529 11.1217C20.2559 11.2288 20.2357 11.3353 20.1937 11.434C20.1517 11.5326 20.0888 11.6209 20.0095 11.693C19.9301 11.7651 19.8362 11.8192 19.734 11.8516C19.6318 11.8839 19.5238 11.8939 19.4174 11.8806H19.4789Z" fill="#294452"/>
<path d="M15.075 0.554265C11.0968 0.534374 7.27364 2.09563 4.44656 4.89458C1.61949 7.69352 0.0200787 11.5009 0.000187759 15.4791C-0.0197032 19.4573 1.54155 23.2804 4.3405 26.1075C7.13944 28.9346 10.9468 30.534 14.925 30.5539C16.8948 30.5637 18.8473 30.1855 20.6709 29.4408C22.4945 28.6961 24.1536 27.5995 25.5534 26.2136C26.9533 24.8277 28.0664 23.1796 28.8293 21.3635C29.5922 19.5475 29.99 17.5989 29.9998 15.6291C30.0097 13.6593 29.6314 11.7068 28.8867 9.88319C28.142 8.05956 27.0454 6.40047 25.6595 5.00064C24.2736 3.60082 22.6256 2.48767 20.8095 1.72476C18.9934 0.961848 17.0448 0.564114 15.075 0.554265ZM24.1844 19.607C24.1886 20.28 24.0591 20.947 23.8036 21.5696C23.548 22.1921 23.1714 22.7578 22.6957 23.2337C22.2199 23.7096 21.6544 24.0863 21.0319 24.3421C20.4094 24.5978 19.7424 24.7274 19.0695 24.7235H11.0835C10.4107 24.7272 9.74382 24.5975 9.12146 24.3418C8.4991 24.0861 7.93363 23.7095 7.45779 23.2338C6.98195 22.7581 6.60519 22.1928 6.34931 21.5705C6.09344 20.9482 5.96353 20.2814 5.96711 19.6085V11.6211C5.96293 10.9482 6.09237 10.2811 6.34792 9.65856C6.60347 9.03602 6.98005 8.47039 7.45583 7.99447C7.93161 7.51855 8.49713 7.14181 9.1196 6.88607C9.74207 6.63034 10.4091 6.50071 11.082 6.50469H19.0695C19.7423 6.50071 20.4092 6.63029 21.0316 6.88593C21.6539 7.14157 22.2194 7.51819 22.6951 7.99395C23.1709 8.46971 23.5475 9.03515 23.8031 9.65753C24.0588 10.2799 24.1884 10.9468 24.1844 11.6196V19.607Z" fill="#294452"/>
</g>
<defs>
<clipPath id="clip0_100_62">
<rect width="30" height="30" fill="white" transform="translate(0 0.554077)"/>
</clipPath>
</defs>
</svg>
