<svg width="74" height="31" viewBox="0 0 74 31" fill="none" xmlns="http://www.w3.org/2000/svg">
<mask id="mask0_27_16" style="mask-type:luminance" maskUnits="userSpaceOnUse" x="0" y="2" width="32" height="27">
<path d="M31.1014 2.13794H0V28.8621H31.1014V2.13794Z" fill="white"/>
</mask>
<g mask="url(#mask0_27_16)">
<path d="M2.14493 27.2586C5.36232 19.0629 13.4058 3.74139 18.7681 3.74139C23.5942 3.74139 9.65217 26.1897 15.0145 26.1897C18.7681 26.1897 21.4493 14.9655 24.1304 14.9655C26.8116 14.9655 23.058 24.5862 25.2029 24.5862C27.8841 24.5862 29.4928 20.3104 29.4928 20.3104" stroke="#F9DC43" stroke-width="3" stroke-linecap="round" stroke-linejoin="round"/>
</g>
<path d="M47.36 16.368C49.0588 17.112 50.2943 18.6769 50.2943 20.7294C50.2943 23.6284 47.9263 25.6552 44.9405 25.6552H37.0129V7.69653H44.5287C47.4115 7.69653 49.7023 9.62067 49.7023 12.4171C49.7023 14.2129 48.7499 15.624 47.36 16.368ZM43.9624 10.8521H40.6678V14.8543H43.9624C45.1979 14.8543 46.1245 14.0847 46.1245 12.8532C46.1245 11.6731 45.1979 10.8521 43.9624 10.8521ZM40.6678 22.4739H44.2198C45.584 22.4739 46.6393 21.6016 46.6393 20.2676C46.6393 18.9078 45.5583 17.9843 44.2198 17.9843H40.6678V22.4739ZM62.3307 18.9335L67.7874 7.69653H72.2146V25.6552H68.6368V13.8538L63.2059 24.8598H61.4556L55.9989 13.8538V25.6552H52.4212V7.69653H56.8483L62.3307 18.9335Z" fill="#F9DC43"/>
</svg>
