<svg width="30" height="31" viewBox="0 0 30 31" fill="none" xmlns="http://www.w3.org/2000/svg">
<path d="M17.4045 15.3036L14.0355 13.7316C13.7415 13.5951 13.5 13.7481 13.5 14.0736V17.0346C13.5 17.3601 13.7415 17.5131 14.0355 17.3766L17.403 15.8046C17.6985 15.6666 17.6985 15.4416 17.4045 15.3036ZM15 1.15405C7.04698 1.15405 0.599976 7.60105 0.599976 15.5541C0.599976 23.5071 7.04698 29.9541 15 29.9541C22.953 29.9541 29.4 23.5071 29.4 15.5541C29.4 7.60105 22.953 1.15405 15 1.15405ZM15 21.4041C7.62898 21.4041 7.49998 20.7396 7.49998 15.5541C7.49998 10.3686 7.62898 9.70405 15 9.70405C22.371 9.70405 22.5 10.3686 22.5 15.5541C22.5 20.7396 22.371 21.4041 15 21.4041Z" fill="#294452"/>
</svg>
